<?xml version="1.0" standalone="no"?>
<!DOCTYPE svg PUBLIC "-//W3C//DTD SVG 20010904//EN"
 "http://www.w3.org/TR/2001/REC-SVG-20010904/DTD/svg10.dtd">
<svg version="1.0" xmlns="http://www.w3.org/2000/svg"
 width="698.000000pt" height="698.000000pt" viewBox="0 0 698.000000 698.000000"
 preserveAspectRatio="xMidYMid meet">
<metadata>
Created by potrace 1.14, written by Peter Selinger 2001-2017
</metadata>
<g transform="translate(0.000000,698.000000) scale(0.100000,-0.100000)"
fill="#000000" stroke="none">
<path d="M3275 6974 c-22 -2 -89 -9 -150 -14 -801 -78 -1596 -468 -2157 -1059
-535 -564 -857 -1257 -950 -2046 -16 -143 -16 -587 0 -730 99 -842 470 -1595
1061 -2157 564 -535 1257 -857 2046 -950 143 -16 587 -16 730 0 842 99 1595
470 2157 1061 481 506 803 1146 917 1821 36 214 46 332 46 590 0 334 -25 545
-100 847 -157 630 -506 1230 -974 1675 -561 533 -1255 856 -2036 948 -92 11
-518 21 -590 14z m615 -339 c867 -118 1619 -556 2134 -1242 336 -448 533 -933
613 -1513 25 -178 24 -605 -1 -785 -121 -876 -555 -1623 -1243 -2139 -448
-336 -933 -533 -1513 -613 -178 -25 -605 -24 -785 1 -876 121 -1623 555 -2139
1243 -336 448 -533 933 -613 1513 -25 178 -24 605 1 785 54 394 164 744 335
1070 304 581 772 1047 1356 1351 376 196 735 298 1230 348 89 9 516 -4 625
-19z"/>
<path d="M3290 6574 c-19 -2 -84 -9 -145 -15 -473 -47 -966 -228 -1386 -510
-284 -190 -580 -480 -786 -769 -297 -416 -478 -879 -549 -1405 -22 -163 -25
-568 -6 -730 86 -700 377 -1313 861 -1809 500 -511 1108 -815 1826 -912 163
-22 568 -25 730 -6 700 86 1313 377 1809 861 511 500 815 1108 912 1826 22
163 25 568 6 730 -86 700 -377 1313 -861 1809 -498 509 -1112 816 -1821 911
-109 15 -515 28 -590 19z m205 -1097 c165 -144 453 -429 583 -576 50 -58 91
-106 89 -107 -1 -2 -45 8 -97 21 -430 109 -966 133 -1434 64 -71 -10 -131 -17
-133 -16 -2 2 18 46 43 98 93 192 241 382 377 485 116 88 278 151 392 153 37
1 50 -7 180 -122z m830 -262 c226 -52 413 -96 417 -98 4 -1 -21 -47 -54 -102
-34 -55 -98 -173 -144 -261 l-82 -162 -85 107 c-119 150 -234 280 -418 473
l-159 166 58 -13 c31 -8 242 -57 467 -110z m-910 -402 l48 -6 -6 -151 c-21
-520 -204 -851 -550 -994 -102 -43 -277 -77 -277 -54 0 4 14 101 31 215 18
114 30 210 27 212 -3 3 -25 -4 -49 -15 -24 -11 -52 -20 -62 -20 -29 0 -72 26
-86 54 -13 24 -5 46 149 383 90 197 165 360 167 362 11 15 513 27 608 14z
m385 -44 c180 -30 372 -81 521 -140 71 -28 129 -53 129 -56 0 -3 -29 -78 -64
-167 -102 -254 -157 -458 -187 -681 -22 -172 -1 -429 46 -547 7 -17 -6 -18
-174 -18 l-181 0 0 425 0 425 -160 0 -160 0 0 -460 0 -460 -567 2 -568 3 -53
70 c-29 39 -70 106 -92 150 -39 80 -78 200 -68 210 3 3 25 1 49 -4 103 -23
261 -32 374 -21 434 40 733 299 854 740 30 110 50 256 58 418 l6 144 56 -7
c31 -3 112 -15 181 -26z m1852 -2140 c99 -26 205 -144 228 -256 32 -154 -43
-312 -181 -383 -131 -68 -306 -36 -408 75 -68 74 -86 123 -86 235 0 110 18
160 81 229 92 102 221 138 366 100z m-4149 -2 c148 -63 194 -256 88 -378 -49
-58 -99 -79 -193 -79 l-78 0 0 -105 0 -105 -95 0 -95 0 0 340 0 340 170 0
c121 0 180 -4 203 -13z m646 -314 c57 -181 106 -334 108 -340 4 -10 -18 -13
-90 -13 l-95 0 -22 65 -22 66 -91 -3 -91 -3 -19 -62 -19 -63 -95 0 c-86 0 -95
2 -91 18 3 9 52 162 109 340 l103 322 105 0 106 0 104 -327z m361 67 l0 -260
150 0 150 0 0 -80 0 -80 -245 0 -245 0 0 340 0 340 95 0 95 0 0 -260z m837
-57 c56 -175 104 -328 108 -340 6 -23 5 -23 -88 -23 l-95 0 -19 63 -19 62 -93
0 -93 0 -20 -62 -19 -63 -95 0 c-73 0 -95 3 -91 13 2 6 51 159 108 339 l104
328 106 0 105 0 101 -317z m594 286 c100 -47 159 -129 178 -248 26 -161 -49
-311 -188 -374 -40 -19 -69 -22 -228 -25 l-183 -4 0 342 0 342 183 -4 c172 -3
185 -4 238 -29z m449 -309 l0 -340 -90 0 -90 0 0 340 0 340 90 0 90 0 0 -340z
m404 168 l136 -171 0 171 0 172 95 0 95 0 0 -340 0 -340 -77 1 -78 0 -132 166
-133 165 0 -166 0 -166 -95 0 -95 0 0 340 0 340 74 0 75 0 135 -172z m-2819
-783 c-37 -26 -45 -36 -45 -50 0 -8 9 -15 20 -15 11 0 20 -7 20 -15 0 -8 -9
-15 -20 -15 -18 0 -20 -7 -20 -80 0 -64 -3 -80 -15 -80 -12 0 -15 16 -15 80 0
64 -3 80 -15 80 -8 0 -15 7 -15 15 0 8 7 15 15 15 9 0 15 9 15 24 0 34 25 56
63 56 30 -1 31 -1 12 -15z m1895 -118 l0 -133 -57 -2 c-32 -1 -63 2 -69 6 -33
21 -44 98 -22 147 12 28 44 40 83 33 24 -5 25 -3 25 38 0 37 3 44 20 44 19 0
20 -7 20 -133z m310 89 l0 -44 44 5 c36 4 47 1 65 -18 34 -36 26 -135 -13
-161 -17 -12 -71 -9 -84 4 -9 9 -12 9 -12 0 0 -7 -7 -12 -15 -12 -13 0 -15 22
-15 135 0 113 2 135 15 135 11 0 15 -12 15 -44z m-1320 -11 c0 -18 5 -25 20
-25 11 0 20 -7 20 -15 0 -8 -9 -15 -20 -15 -18 0 -20 -7 -20 -59 0 -55 16 -91
33 -74 4 3 7 -1 7 -10 0 -20 -40 -23 -58 -5 -7 7 -12 40 -12 80 0 54 -3 68
-15 68 -8 0 -15 7 -15 15 0 8 7 15 15 15 9 0 15 9 15 25 0 16 6 25 15 25 9 0
15 -9 15 -25z m-690 -41 c0 -8 -8 -14 -18 -14 -32 0 -42 -22 -42 -92 0 -54 -3
-68 -15 -68 -12 0 -15 17 -15 93 l0 94 45 1 c32 0 45 -4 45 -14z m239 -6 c27
-28 35 -75 21 -112 -15 -39 -38 -55 -81 -56 -51 0 -84 37 -84 95 0 59 33 95
86 95 26 0 45 -7 58 -22z m171 10 c0 -9 3 -9 12 0 17 17 74 15 92 -4 23 -22
23 -174 1 -174 -12 0 -15 14 -15 69 0 50 -4 74 -16 85 -19 20 -24 20 -52 0
-19 -13 -22 -24 -22 -85 0 -55 -3 -69 -15 -69 -12 0 -15 17 -15 95 0 78 3 95
15 95 8 0 15 -5 15 -12z m730 -3 c6 -8 16 -30 20 -50 l8 -35 -64 0 c-57 0 -64
-2 -64 -20 0 -11 12 -27 26 -37 25 -16 28 -16 55 -1 20 12 31 13 35 6 18 -29
-73 -51 -116 -28 -10 5 -24 26 -30 45 -23 70 16 135 81 135 20 0 42 -7 49 -15z
m267 3 c9 -7 13 -38 13 -94 0 -68 -3 -84 -15 -84 -12 0 -15 15 -15 75 0 64 -3
76 -20 85 -14 8 -26 8 -40 0 -17 -9 -20 -21 -20 -85 0 -68 -2 -75 -20 -75 -19
0 -20 7 -20 94 l0 93 62 1 c34 1 68 -4 75 -10z m976 -5 c10 -12 16 -43 19 -96
3 -68 1 -77 -14 -77 -10 0 -18 5 -18 12 0 9 -3 9 -12 0 -17 -17 -74 -15 -92 4
-21 21 -20 57 2 77 10 9 37 19 60 23 46 7 50 14 26 38 -20 20 -33 20 -55 0
-10 -9 -26 -14 -36 -12 -16 3 -16 5 5 26 28 28 91 30 115 5z m258 7 c20 -11
27 -50 8 -50 -6 0 -19 10 -28 21 -21 26 -61 18 -61 -11 0 -14 11 -22 38 -30
22 -5 47 -19 58 -31 17 -19 17 -23 3 -47 -27 -49 -139 -37 -139 15 0 7 7 13
15 13 8 0 15 -4 15 -10 0 -15 39 -32 61 -25 34 11 20 47 -21 58 -38 9 -70 33
-70 51 0 6 7 22 16 34 17 24 70 30 105 12z m269 -10 c11 -11 20 -33 20 -50 l0
-30 -60 0 c-53 0 -60 -2 -60 -20 0 -11 12 -27 26 -37 25 -16 28 -16 55 -1 20
12 31 13 35 6 18 -29 -73 -51 -116 -28 -24 13 -43 72 -35 110 14 65 92 93 135
50z m-2002 -62 c-3 -8 -21 -13 -43 -13 -22 0 -40 5 -42 13 -3 8 9 12 42 12 33
0 45 -4 43 -12z"/>
<path d="M3130 5290 c-24 -24 -25 -32 -2 -59 15 -19 468 -211 497 -211 16 0
45 33 45 51 0 8 -4 20 -8 27 -8 11 -483 212 -503 212 -5 0 -18 -9 -29 -20z"/>
<path d="M2498 3469 c-16 -9 -18 -28 -18 -167 0 -166 4 -182 45 -182 47 0 55
26 55 176 0 110 -3 144 -16 162 -16 24 -39 27 -66 11z"/>
<path d="M2788 3469 c-16 -9 -18 -28 -18 -167 0 -167 4 -182 46 -182 44 0 54
33 54 180 0 106 -3 140 -16 158 -16 24 -39 27 -66 11z"/>
<path d="M3078 3469 c-16 -9 -18 -28 -18 -167 0 -167 4 -182 46 -182 44 0 54
33 54 180 0 106 -3 140 -16 158 -16 24 -39 27 -66 11z"/>
<path d="M3368 3469 c-16 -9 -18 -28 -18 -167 0 -166 4 -182 45 -182 41 0 45
16 45 180 0 159 -5 180 -39 180 -9 0 -24 -5 -33 -11z"/>
<path d="M5471 2458 c-55 -37 -74 -71 -79 -137 -5 -74 9 -118 53 -161 28 -27
44 -34 87 -38 44 -3 59 0 87 20 48 32 72 78 78 146 8 103 -51 181 -144 189
-39 4 -55 0 -82 -19z"/>
<path d="M1320 2405 l0 -75 53 0 c66 0 87 19 87 77 0 54 -22 73 -88 73 l-52 0
0 -75z"/>
<path d="M1907 2336 c-15 -57 -27 -107 -27 -110 0 -3 27 -6 61 -6 53 0 60 2
55 18 -3 9 -15 55 -27 102 -12 47 -25 88 -29 93 -3 4 -18 -40 -33 -97z"/>
<path d="M3110 2343 c-14 -54 -26 -104 -28 -110 -3 -10 14 -13 58 -13 46 0 61
3 57 13 -2 6 -15 56 -28 110 -12 53 -26 97 -29 97 -3 0 -17 -44 -30 -97z"/>
<path d="M3710 2301 l0 -181 45 0 c112 0 175 64 175 179 0 117 -48 172 -157
179 l-63 4 0 -181z"/>
<path d="M3760 1580 c-48 -48 -6 -150 51 -120 28 15 28 115 0 130 -26 13 -28
13 -51 -10z"/>
<path d="M4202 1584 c-17 -12 -22 -25 -22 -59 0 -34 5 -47 22 -59 29 -20 34
-20 58 4 12 12 20 33 20 55 0 22 -8 43 -20 55 -24 24 -29 24 -58 4z"/>
<path d="M2322 1584 c-33 -23 -32 -97 3 -120 23 -15 27 -15 50 0 35 23 36 97
3 120 -12 9 -25 16 -28 16 -3 0 -16 -7 -28 -16z"/>
<path d="M3227 1582 c-28 -31 -21 -42 28 -42 49 0 59 15 29 44 -20 21 -37 20
-57 -2z"/>
<path d="M4461 1506 c-18 -21 -2 -46 28 -46 31 0 51 16 51 42 0 14 -8 18 -34
18 -18 0 -39 -6 -45 -14z"/>
<path d="M4997 1582 c-28 -31 -21 -42 28 -42 49 0 59 15 29 44 -20 21 -37 20
-57 -2z"/>
</g>
</svg>
